
<svg width="1500" height="500" viewBox="0 0 1500 500" fill="none" xmlns="http://www.w3.org/2000/svg"><g clip-path="url(#clip0)"><path d="M0 0h1500v500H0z"/><path d="M1 498 751 33l750 465" stroke="#E9E9E9" stroke-width="4" stroke-linecap="round"/><path d="M-397 498 751 33l1148 465" stroke="#E9E9E9" stroke-width="4" stroke-linecap="round"/><path d="M-1136 498 751 33l1887 465" stroke="#E9E9E9" stroke-width="4" stroke-linecap="round"/><path d="M251 498 750.5 33 1250 498" stroke="#E9E9E9" stroke-width="4" stroke-linecap="round"/><path d="M464 498 750.474 33l286.476 465" stroke="#E9E9E9" stroke-width="4" stroke-linecap="round"/><path d="m654 498 96-465 96 465" stroke="#E9E9E9" stroke-width="4" stroke-linecap="round"/><path d="M-128 500h1757M-128 400h1757" stroke="#E9E9E9" stroke-width="4" style="animation:move-100 4s infinite linear"/><path d="M-128 300h1757m-1757-75h1757" stroke="#E9E9E9" stroke-width="4" style="animation:move-75 4s infinite linear"/><path d="M-128 175h1757" stroke="#E9E9E9" stroke-width="4" style="animation:move-50 4s infinite linear"/><path fill="url(#paint0_linear)" d="M0 0h1501v500H0z"/></g><text fill="#000" xml:space="preserve" style="white-space:pre" font-family="-apple-system, BlinkMacSystemFont, 'Segoe UI', Roboto, Helvetica, Arial, sans-serif" font-size="64" font-weight="bold" letter-spacing="0em"><tspan x="595.781" y="251.75">Lavi Sar</tspan></text><defs><linearGradient id="paint0_linear" x1="751" y1="205.5" x2="750.5" y2="526.104" gradientUnits="userSpaceOnUse"><stop stop-color="#fff"/><stop offset="1" stop-color="#fff" stop-opacity="0"/></linearGradient><clipPath id="clip0"><rect width="1500" height="500" rx="20"/></clipPath></defs><style>@keyframes move-100{0%{transform:translateY(0)}to{transform:translateY(-100px)}}@keyframes move-75{0%{transform:translateY(0)}to{transform:translateY(-75px)}}@keyframes line-50{0%{transform:translateY(0)}to{transform:translateY(-50px)}}@keyframes pulse-opacity{0%,to{opacity:.5}50%{opacity:1}}</style></svg>
